<svg id="Capa_1" data-name="Capa 1" xmlns="http://www.w3.org/2000/svg" viewBox="0 0 865.4 276.68">
    <title>deoslv</title>
    <path class="cls-1"
        d="M871.93,57.54c-6,0-11.93.12-17.89-.06-2.59-.07-3.65.91-4.46,3.3-4.23,12.39-8.67,24.72-13,37.06q-11.34,32.86-22.71,65.71c-1,2.84-1.64,6.44-5.4,6.57-4.21.14-4.6-3.83-5.59-6.7Q785.23,112.33,767.8,61.18c-1-2.87-2.28-3.9-5.29-3.79-6.49.23-13,.23-19.48.06-2.88-.08-3,.81-2.17,3.19,2.82,7.86,5.46,15.78,8.18,23.67q15.4,44.7,30.79,89.41c2.78,8.12,7.48,14.59,15.25,18.49,16.55,8.3,35,.31,41.65-17.92,2.26-6.2,3.88-12.63,6.67-18.64,4.34-14.24,9.18-28.31,14.41-42.25l0,0c.23-.89.39-1.8.69-2.67q8.34-24.42,16.72-48.83C876.71,57.54,876.74,57.54,871.93,57.54Z"
        transform="translate(-10.7 -6.61)" />
    <path class="cls-1"
        d="M344.53,82.37c21.34,0,42.68-.05,64,.07,3,0,4.28-.55,4.11-3.88-.27-5.69-.23-11.4,0-17.1.12-3.07-.74-4-4-4-16.57.15-33.14,0-49.71,0-3.83,0-14.79.11-18.63.12-4.23,0-1.35-.3-5.53.58-16.93,3.54-28.91,18.51-29.06,36.4-.11,13-.15,25.93-.22,38.9.07,9,.07,18,.22,27,.3,18.67,14.94,34.57,32.92,34.88,23.59.39,47.19.09,70.78.18,2.49,0,3.19-.88,3.14-3.23-.12-5.69-.24-11.4,0-17.09.16-3.54-.76-4.71-4.54-4.67-21.74.19-43.48.12-65.22.08-8.26,0-12-3.67-12.07-11.8-.09-6.89.27-13.8-.15-20.67-.24-3.89,1.06-4.57,4.57-4.56,24.53.13,49.05,0,73.58.13,2.91,0,3.95-.69,3.82-3.74-.24-5.69-.26-11.41,0-17.1.16-3.38-1-4.16-4.26-4.14-24.52.13-49,0-73.57.13-3,0-4.39-.65-4.09-3.93.27-2.89.06-5.83.07-8.74C330.87,86.49,334.93,82.38,344.53,82.37Z"
        transform="translate(-10.7 -6.61)" />
    <path class="cls-1"
        d="M751.23,170.53c-16.57.2-33.14,0-49.71.08a25.43,25.43,0,0,1-25.95-25.7c.52-29,.13-58.06.12-87.09-6.75-.06-13.5.1-20.23-.28-3.68-.21-4.68.87-4.65,4.54.15,26,.21,51.82,0,77.76-.08,9.88.44,19.53,4.7,28.63,1.13,1.75,2.21,3.55,3.41,5.26,9.65,13.73,23,21.09,39.64,21.61,17.88.56,35.79.08,53.68.21,2.75,0,3.31-1,3.25-3.46-.15-5.7-.23-11.41,0-17.1C755.71,171.61,754.86,170.48,751.23,170.53Z"
        transform="translate(-10.7 -6.61)" />
    <path class="cls-1"
        d="M614.82,127.63q-19.68-10.23-39.39-20.4c-5-2.5-10-4.92-14.85-7.54-3.46-1.85-6-4.67-5.68-8.8.38-4.39,3.67-6.54,7.57-7.69,4.79-1.42,9.71-.81,14.58-.62h0c1.59-.07,3.17-.19,4.75-.2,14.17,0,28.34-.08,42.5.05,2.89,0,4-.68,3.88-3.74-.23-5.68-.28-11.39,0-17.07.17-3.44-1.09-4.15-4.29-4.12-21.17.21-42.35.22-63.53.3-2,1.3-4.35.9-6.46,1.63a8.11,8.11,0,0,1-1.33.78c-20.74,7.8-28.49,30.4-17,49.37,3.91,6.46,9.92,10.39,16,14.27,2.23,2.58,5.48,3.58,8.32,5.12,5.6,3.05,11.05,6.5,17.28,8.24,7.33,3.08,14.17,7.12,21.21,10.76,3.17,1.64,6.47,3.09,8.93,5.83a8.83,8.83,0,0,1-.82,13c-3.77,3.3-8.29,3.84-13,3.83-20,0-40,.07-60-.06-3.15,0-4.13.9-4,4,.22,5.83.17,11.67,0,17.49-.07,2.63.89,3.44,3.46,3.4,6.22-.11,12.45,0,18.68.09l24.64,0c7.68-.08,15.37.19,23-.33,14.83-1,26.41-7.66,32.55-21.58C639.64,155.91,632.38,136.76,614.82,127.63Z"
        transform="translate(-10.7 -6.61)" />
    <path class="cls-1"
        d="M488.32,57.6c-12.06-.06-24.12.16-36.18.26-23.19,4.23-38.88,24-38.19,48.9.51,18.12.07,36.28.12,54.42.06,19.5,14.68,34.17,34.12,34.29,10.33.06,20.65.08,31,.12l4.68-.81a45,45,0,0,0,37.53-43.56q.32-30.42,0-60.85A33,33,0,0,0,488.32,57.6Zm8.44,39.6c-.46,17.48-.05,35-.15,52.47-.06,10.4-6.49,18.09-16.63,20.28-11.09,1.36-22.23.67-33.34.44a7.63,7.63,0,0,1-7.42-7.91c-.08-20.41-.23-40.84.1-61.25.16-9.7,8.89-18.31,18.41-18.7,7.67-.32,15.36,0,23,0h0C492.67,81.44,497.13,83.21,496.76,97.2Z"
        transform="translate(-10.7 -6.61)" />
    <path class="cls-1"
        d="M61.46,168.75c.93,19.77,7.53,37,23.77,49.5,10.32,7.93,22.19,12.18,34.91,14.26a58.05,58.05,0,0,0,14.79,1.08,76.9,76.9,0,0,1-12.64-9.2,55.3,55.3,0,0,1-9.56-11.1c-13.46-21.19-15.1-44-8.41-67.58,6-21.12,19.34-35.8,39.86-43.87,8.71-3.43,17.86-4.75,27.06-5.89h3.95c1.89,0,3.78.11,5.67,0h3v-.32l-.08-.05h0l.08.05.13,0c0,.11-.1.23-.14.34,2.11.83,3.18.41,3.17-2.16q-.12-16.69,0-33.39c0-2.23-.7-3-2.95-3-6.36,0-12.71.09-19.05.68-25.26,2.34-48.2,10.61-66.81,28.19C74.65,108.53,59.89,135.15,61.46,168.75Z"
        transform="translate(-10.7 -6.61)" />
    <path class="cls-1"
        d="M288.16,11.34c0-1.58-.21-3.16-.32-4.73-1.55.21-3.1.52-4.67.64-15.1,1.09-24.82,9.33-30.51,22.94a1.58,1.58,0,0,0-.44,1.64c-.08.18-.15.35-.21.53a4.71,4.71,0,0,0-.49,1.69q-.11,30.77-.12,61.52h0l-.06,18a6.46,6.46,0,0,0-.39,1.51q-.18,33.21-.32,66.42C249.12,188.68,248.08,196,246,203c-8.62,29.74-25.23,53.94-50.93,71.58-4,2.72-8.24,5-13.35,8.1a123.07,123.07,0,0,0,33.16-5.84c15.19-5,28.69-12.77,39.69-24.56h0c2.36-1.37,3.56-3.93,5.67-5.56,0-.12,0-.29.09-.38,19-23.91,28.14-51,27.95-81.62C288,113.59,288.2,62.47,288.16,11.34Z"
        transform="translate(-10.7 -6.61)" />
    <path class="cls-1"
        d="M197.25,256.28c.48-.43.93-.89,1.44-1.28a84.17,84.17,0,0,0,24.13-28.94c4.66-7.42,7.76-15.55,10.46-23.8a89.61,89.61,0,0,0,4-28.2q-.08-45.31,0-90.62c0-24.38-.08-48.76.09-73.14,0-3.44-1-4.08-4-3.41C228.28,8,223.21,9,218.84,12h0c-11.19,6.41-18.31,15.58-18.42,28.9q-.51,59.42-.61,118.84c0,14.48,0,28.85-6.56,42.26h0a87.77,87.77,0,0,1-23.75,28.85c-2,1.21-4,2.5-6.1,3.63-17,9.26-34.76,14.92-54.36,9.74-4.84-1.28-9.57-3-14.35-4.5a1.77,1.77,0,0,1-.87.23,5.11,5.11,0,0,0,.87-.23c-7.73-2.93-14-8.27-20.72-12.79h0c-5.86-6.23-11.4-12.72-15.8-20.11h0c-5.31-8.51-7.47-17.95-8.12-27.81a132.44,132.44,0,0,1,12.87-67.42c4-6.78,8.2-13.48,12.8-19.89,7.88-8.93,16.17-17.39,25.93-24.32,4.93-3.49,10.15-6.52,15.33-9.67a40.28,40.28,0,0,0-5.56.55c-12.93,2.09-25.61,5.09-37.41,11h0c-5.8,2-10.89,5.34-15.93,8.75h0A61.85,61.85,0,0,0,45.27,88.35h0c-.8.67-1.66,1.27-2.39,2-14.42,14.51-23.05,32.31-28.34,51.72A98,98,0,0,0,11.06,168a31.39,31.39,0,0,0,0,9.53c3,29.9,15.19,55.46,36.62,76.58a27.43,27.43,0,0,0,7.76,6.33,69.46,69.46,0,0,0,16.67,10.32,19.71,19.71,0,0,0,6.59,3.13h0c1.06.52,2.09,1.13,3.19,1.55,20.81,8,42,10.34,63.91,4.89,9.77-2.43,19.53-4.83,28.47-9.67,1.28-.56,2.6-1,3.84-1.69,6.85-3.51,13.58-7.21,19.13-12.68Z"
        transform="translate(-10.7 -6.61)" />
    <path class="cls-2" d="M551.74,51.51" transform="translate(-10.7 -6.61)" />
    <path class="cls-1" d="M-133.24,24.69" transform="translate(-10.7 -6.61)" />
</svg>